REM DIRINDEX 1\2,1\3,1\4
REM DIRNAME folder01,folder02,folder03,folder04
TITLE ""
FILE "117 117_TOEFL_3900.mp3" MP3
  TRACK 01 AUDIO
    TITLE "2:cjc151_5072"
    INDEX 01 00:00:00
  TRACK 02 AUDIO
    TITLE "0:"
    INDEX 01 00:01:19
  TRACK 03 AUDIO
    TITLE "3:cjc151_5073"
    INDEX 01 00:02:71
  TRACK 04 AUDIO
    TITLE "0:"
    INDEX 01 00:06:55
  TRACK 05 AUDIO
    TITLE "2:cjc151_5074"
    INDEX 01 00:08:34
  TRACK 06 AUDIO
    TITLE "0:"
    INDEX 01 00:09:47
  TRACK 07 AUDIO
    TITLE "3:cjc151_5075"
    INDEX 01 00:11:27
  TRACK 08 AUDIO
    TITLE "0:"
    INDEX 01 00:16:32
  TRACK 09 AUDIO
    TITLE "2:cjc151_5076"
    INDEX 01 00:18:11
  TRACK 10 AUDIO
    TITLE "0:"
    INDEX 01 00:19:42
  TRACK 11 AUDIO
    TITLE "3:cjc151_5077"
    INDEX 01 00:21:21
  TRACK 12 AUDIO
    TITLE "0:"
    INDEX 01 00:24:69
  TRACK 13 AUDIO
    TITLE "2:cjc151_5078"
    INDEX 01 00:26:46
  TRACK 14 AUDIO
    TITLE "0:"
    INDEX 01 00:27:39
  TRACK 15 AUDIO
    TITLE "3:cjc151_5079"
    INDEX 01 00:29:19
  TRACK 16 AUDIO
    TITLE "0:"
    INDEX 01 00:33:26
  TRACK 17 AUDIO
    TITLE "2:cjc151_5080"
    INDEX 01 00:35:04
  TRACK 18 AUDIO
    TITLE "0:"
    INDEX 01 00:36:13
  TRACK 19 AUDIO
    TITLE "3:cjc151_5081"
    INDEX 01 00:37:67
  TRACK 20 AUDIO
    TITLE "0:"
    INDEX 01 00:41:51
  TRACK 21 AUDIO
    TITLE "2:cjc151_5082"
    INDEX 01 00:43:31
  TRACK 22 AUDIO
    TITLE "0:"
    INDEX 01 00:44:54
  TRACK 23 AUDIO
    TITLE "3:cjc151_5083"
    INDEX 01 00:46:31
  TRACK 24 AUDIO
    TITLE "0:"
    INDEX 01 00:50:70
  TRACK 25 AUDIO
    TITLE "2:cjc151_5084"
    INDEX 01 00:52:49
  TRACK 26 AUDIO
    TITLE "0:"
    INDEX 01 00:54:09
  TRACK 27 AUDIO
    TITLE "3:cjc151_5085"
    INDEX 01 00:55:61
  TRACK 28 AUDIO
    TITLE "0:"
    INDEX 01 01:00:45
  TRACK 29 AUDIO
    TITLE "2:cjc151_5086"
    INDEX 01 01:02:24
  TRACK 30 AUDIO
    TITLE "0:"
    INDEX 01 01:03:33
  TRACK 31 AUDIO
    TITLE "3:cjc151_5087"
    INDEX 01 01:05:15
  TRACK 32 AUDIO
    TITLE "0:"
    INDEX 01 01:10:02
  TRACK 33 AUDIO
    TITLE "2:cjc151_5088"
    INDEX 01 01:11:56
  TRACK 34 AUDIO
    TITLE "0:"
    INDEX 01 01:12:70
  TRACK 35 AUDIO
    TITLE "3:cjc151_5089"
    INDEX 01 01:14:49
  TRACK 36 AUDIO
    TITLE "0:"
    INDEX 01 01:18:47
  TRACK 37 AUDIO
    TITLE "2:cjc151_5090"
    INDEX 01 01:20:24
  TRACK 38 AUDIO
    TITLE "0:"
    INDEX 01 01:21:47
  TRACK 39 AUDIO
    TITLE "3:cjc151_5091"
    INDEX 01 01:23:28
  TRACK 40 AUDIO
    TITLE "0:"
    INDEX 01 01:27:30
  TRACK 41 AUDIO
    TITLE "2:cjc151_5092"
    INDEX 01 01:29:09
  TRACK 42 AUDIO
    TITLE "0:"
    INDEX 01 01:30:17
  TRACK 43 AUDIO
    TITLE "3:cjc151_5093"
    INDEX 01 01:32:00
  TRACK 44 AUDIO
    TITLE "0:"
    INDEX 01 01:34:61
  TRACK 45 AUDIO
    TITLE "2:cjc151_5094"
    INDEX 01 01:36:39
  TRACK 46 AUDIO
    TITLE "0:"
    INDEX 01 01:37:42
  TRACK 47 AUDIO
    TITLE "3:cjc151_5095"
    INDEX 01 01:39:17
  TRACK 48 AUDIO
    TITLE "0:"
    INDEX 01 01:43:11
  TRACK 49 AUDIO
    TITLE "2:cjc151_5096"
    INDEX 01 01:44:70
  TRACK 50 AUDIO
    TITLE "0:"
    INDEX 01 01:45:73
  TRACK 51 AUDIO
    TITLE "3:cjc151_5097"
    INDEX 01 01:47:52
  TRACK 52 AUDIO
    TITLE "0:"
    INDEX 01 01:51:15
  TRACK 53 AUDIO
    TITLE "2:cjc151_5098"
    INDEX 01 01:52:67
  TRACK 54 AUDIO
    TITLE "0:"
    INDEX 01 01:54:09
  TRACK 55 AUDIO
    TITLE "3:cjc151_5099"
    INDEX 01 01:55:63
  TRACK 56 AUDIO
    TITLE "0:"
    INDEX 01 02:00:00
  TRACK 57 AUDIO
    TITLE "2:cjc151_5100"
    INDEX 01 02:01:54
  TRACK 58 AUDIO
    TITLE "0:"
    INDEX 01 02:02:56
  TRACK 59 AUDIO
    TITLE "3:cjc151_5101"
    INDEX 01 02:04:35
  TRACK 60 AUDIO
    TITLE "0:"
    INDEX 01 02:08:03
  TRACK 61 AUDIO
    TITLE "2:cjc151_5102"
    INDEX 01 02:09:56
  TRACK 62 AUDIO
    TITLE "0:"
    INDEX 01 02:11:06
  TRACK 63 AUDIO
    TITLE "3:cjc151_5103"
    INDEX 01 02:12:60
  TRACK 64 AUDIO
    TITLE "0:"
    INDEX 01 02:16:50
  TRACK 65 AUDIO
    TITLE "2:cjc151_5104"
    INDEX 01 02:18:29
  TRACK 66 AUDIO
    TITLE "0:"
    INDEX 01 02:19:39
  TRACK 67 AUDIO
    TITLE "3:cjc151_5105"
    INDEX 01 02:21:16
  TRACK 68 AUDIO
    TITLE "0:"
    INDEX 01 02:25:20
  TRACK 69 AUDIO
    TITLE "2:cjc151_5106"
    INDEX 01 02:26:72
  TRACK 70 AUDIO
    TITLE "0:"
    INDEX 01 02:28:08
  TRACK 71 AUDIO
    TITLE "3:cjc151_5107"
    INDEX 01 02:29:62
  TRACK 72 AUDIO
    TITLE "0:"
    INDEX 01 02:34:30
  TRACK 73 AUDIO
    TITLE "2:cjc151_5108"
    INDEX 01 02:36:12
  TRACK 74 AUDIO
    TITLE "0:"
    INDEX 01 02:37:25
  TRACK 75 AUDIO
    TITLE "3:cjc151_5109"
    INDEX 01 02:39:04
  TRACK 76 AUDIO
    TITLE "0:"
    INDEX 01 02:43:23
  TRACK 77 AUDIO
    TITLE "2:cjc151_5110"
    INDEX 01 02:45:01
  TRACK 78 AUDIO
    TITLE "0:"
    INDEX 01 02:46:02
  TRACK 79 AUDIO
    TITLE "3:cjc151_5111"
    INDEX 01 02:47:56
  TRACK 80 AUDIO
    TITLE "0:"
    INDEX 01 02:51:52
  TRACK 81 AUDIO
    TITLE "2:cjc151_5112"
    INDEX 01 02:53:33
  TRACK 82 AUDIO
    TITLE "0:"
    INDEX 01 02:54:51
  TRACK 83 AUDIO
    TITLE "3:cjc151_5113"
    INDEX 01 02:56:26
  TRACK 84 AUDIO
    TITLE "0:"
    INDEX 01 02:59:60
  TRACK 85 AUDIO
    TITLE "2:cjc151_5114"
    INDEX 01 03:01:37
  TRACK 86 AUDIO
    TITLE "0:"
    INDEX 01 03:02:54
  TRACK 87 AUDIO
    TITLE "3:cjc151_5115"
    INDEX 01 03:04:31
  TRACK 88 AUDIO
    TITLE "0:"
    INDEX 01 03:08:64
